<svg xmlns="http://www.w3.org/2000/svg" width="100" height="100" viewBox="0 0 100 100">
  <g id="icon-dice" transform="translate(-2516.48 2083.235)">
    <path id="Path_24" data-name="Path 24" d="M2597.285-1983.235a2.162,2.162,0,0,1-.564-.075l-63.517-17.019a2.17,2.17,0,0,1-1.321-1.014,2.166,2.166,0,0,1-.218-1.651l2.715-10.132h-15.724a2.178,2.178,0,0,1-2.176-2.176v-65.757a2.178,2.178,0,0,1,2.176-2.176h65.757a2.179,2.179,0,0,1,2.177,2.176v22.452l28.276,7.576a2.164,2.164,0,0,1,1.321,1.014,2.161,2.161,0,0,1,.218,1.65l-17.019,63.517A2.179,2.179,0,0,1,2597.285-1983.235Zm-60.851-20.734,59.312,15.892,15.892-59.314-25.048-6.711v38.8a2.179,2.179,0,0,1-2.177,2.176h-45.526Zm-15.6-13.508h61.405v-61.406h-61.405Z" fill="#305b33"/>
    <path id="Path_25" data-name="Path 25" d="M2566.48-2028.071a5.171,5.171,0,0,1-5.166-5.164,5.172,5.172,0,0,1,5.166-5.165,5.171,5.171,0,0,1,5.164,5.165A5.17,5.17,0,0,1,2566.48-2028.071Z" fill="#305b33"/>
    <path id="Path_26" data-name="Path 26" d="M2551.535-2043.015a5.171,5.171,0,0,1-5.165-5.165,5.171,5.171,0,0,1,5.165-5.165,5.171,5.171,0,0,1,5.165,5.165A5.171,5.171,0,0,1,2551.535-2043.015Z" fill="#305b33"/>
    <path id="Path_27" data-name="Path 27" d="M2536.591-2057.96a5.171,5.171,0,0,1-5.166-5.165,5.171,5.171,0,0,1,5.166-5.165,5.171,5.171,0,0,1,5.164,5.165A5.171,5.171,0,0,1,2536.591-2057.96Z" fill="#305b33"/>
  </g>
</svg>
