<svg xmlns="http://www.w3.org/2000/svg" width="76.974" height="100" viewBox="0 0 76.974 100">
  <path id="icon-finger-snap-easy" d="M2680.071-1995.886a1.885,1.885,0,0,1-1.379-.567,2.018,2.018,0,0,1,0-2.761l8.513-8.514a2.229,2.229,0,0,1,1.369-.527,1.647,1.647,0,0,1,.4.049l2.777.641a14.737,14.737,0,0,0,3.253.368,14.442,14.442,0,0,0,10.078-4.143,123.09,123.09,0,0,0,13.268-15.3l.45-.629-.719-.288a8.3,8.3,0,0,1-2.776-1.782,7.23,7.23,0,0,1-2.062-4.12l-.07-.527h-.532a4.292,4.292,0,0,0-.7.066,2.335,2.335,0,0,1-.361.041,7.36,7.36,0,0,1-5.319-2.164,8.393,8.393,0,0,1-2.069-4.054l-.1-.488h-.5a4.518,4.518,0,0,0-.583.053,4.46,4.46,0,0,1-.588.054,6.715,6.715,0,0,1-2.447-.388l-.721-.269-.1.763a19.324,19.324,0,0,1-8.849,14.02,2.21,2.21,0,0,1-.978.241,1.8,1.8,0,0,1-1.692-.941,2.082,2.082,0,0,1,.742-2.729,15.46,15.46,0,0,0,6.547-16.711,7.443,7.443,0,0,1,2.07-6.786l24.8-25.12a3.622,3.622,0,0,0,0-5.113,3.593,3.593,0,0,0-2.559-1.055,3.586,3.586,0,0,0-2.557,1.055l-32.674,32.674a1.988,1.988,0,0,1-1.382.633,1.567,1.567,0,0,1-.384-.048,1.957,1.957,0,0,1-1.4-1.14,53.517,53.517,0,0,0-6.47-10.89,26.318,26.318,0,0,0-5.342-4.906,5.627,5.627,0,0,0-3.447-1.148,6.009,6.009,0,0,0-3.536,1.153,2.3,2.3,0,0,0-.931,1.41,2.13,2.13,0,0,0,.367,1.67l4.455,6.894a26.614,26.614,0,0,1,4.16,14.772l-.319,13.194a9.713,9.713,0,0,1-2.8,6.5l-6.067,6.067a1.89,1.89,0,0,1-1.379.567,1.892,1.892,0,0,1-1.381-.568,2.017,2.017,0,0,1,0-2.76l6.067-6.067a5.359,5.359,0,0,0,1.667-3.834l.319-13.182a22.056,22.056,0,0,0-3.5-12.585l-4.47-6.917a6.026,6.026,0,0,1,1.546-8.329,9.593,9.593,0,0,1,5.727-1.883,9.949,9.949,0,0,1,5.807,1.883,29.636,29.636,0,0,1,6.155,5.63,47.1,47.1,0,0,1,5.467,8.515l.378.753,30.714-30.715a7.484,7.484,0,0,1,5.319-2.216,7.48,7.48,0,0,1,5.317,2.216,7.479,7.479,0,0,1,2.217,5.319,7.474,7.474,0,0,1-2.217,5.317l-9.245,9.246.807.359a7.608,7.608,0,0,1,2.372,1.578,7.657,7.657,0,0,1,2.164,5.317,3.8,3.8,0,0,1-.089,1.024l-.155.618.625.125a7.97,7.97,0,0,1,4.054,2.068,7.615,7.615,0,0,1,2.062,6.3l-.079.6.6.08a7.233,7.233,0,0,1,4.121,2.062,7.538,7.538,0,0,1,2.27,5.426,7.654,7.654,0,0,1-2.164,5.316l-6.172,6.174a6.713,6.713,0,0,1-1.9,1.393l-.131.074-.081.127a112.818,112.818,0,0,1-15.982,19.155,18.436,18.436,0,0,1-12.767,5.221h0a17.806,17.806,0,0,1-4.121-.483l-1.716-.4-7.687,7.688A1.89,1.89,0,0,1,2680.071-1995.886Zm46.51-48.451a3.6,3.6,0,0,0-2.558,1.055l-6.173,6.173a3.621,3.621,0,0,0,0,5.115,3.589,3.589,0,0,0,2.558,1.057,3.589,3.589,0,0,0,2.558-1.057l6.172-6.172a3.125,3.125,0,0,0,1.024-2.643,3.7,3.7,0,0,0-1.024-2.473A3.592,3.592,0,0,0,2726.581-2044.337Zm-6.706-9.02a3.483,3.483,0,0,0-2.557,1.029l-8.408,8.408a3.59,3.59,0,0,0-1.056,2.558,3.587,3.587,0,0,0,1.056,2.557,3.592,3.592,0,0,0,2.558,1.056,3.587,3.587,0,0,0,2.557-1.056l8.408-8.407a3.622,3.622,0,0,0,0-5.116A3.783,3.783,0,0,0,2719.875-2053.357Zm-6.6-9.18a3.587,3.587,0,0,0-2.557,1.056l-10.963,10.963a3.621,3.621,0,0,0,0,5.115,3.592,3.592,0,0,0,2.558,1.055,3.587,3.587,0,0,0,2.557-1.055l10.963-10.963a3.577,3.577,0,0,0,1.029-2.557,3.792,3.792,0,0,0-1.028-2.558A3.6,3.6,0,0,0,2713.277-2062.537Zm-20.328-17.853a1.887,1.887,0,0,1-1.38-.567,2.018,2.018,0,0,1,0-2.76l5-5a1.956,1.956,0,0,1,1.38-.539,1.956,1.956,0,0,1,1.38.539,2.015,2.015,0,0,1,0,2.76l-5,5A1.891,1.891,0,0,1,2692.949-2080.39Zm-22.137,0a1.888,1.888,0,0,1-1.38-.567l-5-5a2.02,2.02,0,0,1,0-2.761,1.957,1.957,0,0,1,1.381-.539,1.956,1.956,0,0,1,1.38.539l5,5a2.016,2.016,0,0,1,0,2.76A1.886,1.886,0,0,1,2670.812-2080.39Zm11.069-4.577a1.972,1.972,0,0,1-1.947-1.947v-7.025a1.973,1.973,0,0,1,1.947-1.947,1.974,1.974,0,0,1,1.947,1.947v7.025A1.973,1.973,0,0,1,2681.881-2084.967Z" transform="translate(-2657.195 2095.886)" fill="#305b33"/>
</svg>
