<svg xmlns="http://www.w3.org/2000/svg" width="122.127" height="99" viewBox="0 0 122.127 99">
  <path id="icon-trustless" d="M2456.917-1994.516a1.7,1.7,0,0,1-1.015-.3l-20.31-11.775a1.821,1.821,0,0,1-1.043-1.634v-9.156H2401.9v9.027a1.965,1.965,0,0,1-1.016,1.62l-20.312,11.771a2.009,2.009,0,0,1-1.041.32,1.679,1.679,0,0,1-1.014-.3l-20.311-11.774a1.823,1.823,0,0,1-1.043-1.634v-23.385a1.963,1.963,0,0,1,1.016-1.62l19.139-11.142v-9.848a12.952,12.952,0,0,1,12.937-12.937h6.7v-14.453a2.018,2.018,0,0,1,1.876-1.958c12.338-.786,15.886-7.606,16.03-7.9a3.542,3.542,0,0,1,3.041-1.92,3.4,3.4,0,0,1,3.041,1.92c.368.729,3.928,7.125,16.049,7.9a2.011,2.011,0,0,1,1.858,1.956v14.453h6.7a12.952,12.952,0,0,1,12.937,12.937v9.85l19.372,11.126a4.154,4.154,0,0,1,1.429,1.867v23.281a1.963,1.963,0,0,1-1.015,1.62l-20.312,11.772A1.726,1.726,0,0,1,2456.917-1994.516Zm1.7-24.336v18.992l16.374-9.632v-18.855Zm-77.26,0v18.992l16.374-9.632v-18.855Zm-20.286,9.491,16.375,9.495v-18.857l-16.375-9.495Zm77.262-.129,16.374,9.495v-18.859l-16.374-9.357Zm-36.192-11.933h32.153v-10.319a1.963,1.963,0,0,1,1.016-1.62l19.4-11.14v-9.85a8.908,8.908,0,0,0-8.9-8.9h-7.24l-.093.38c-3.262,13.178-18.7,21.042-18.86,21.12a4,4,0,0,1-1.586.335,3.63,3.63,0,0,1-1.585-.335c-.156-.078-15.631-7.949-18.859-21.119l-.093-.381h-7.24a8.908,8.908,0,0,0-8.9,8.9v9.848l19.239,11.256a1.823,1.823,0,0,1,1.045,1.635v9.819h.871Zm38.144-10.187,16.377,9.359,16.377-9.359-16.377-9.495Zm-77.26,0,16.376,9.359,16.377-9.359L2379.4-2041.1Zm54.6-56.879c-1.469,2.1-5.986,7.122-16.192,8.447l-.436.057v12.326c0,12.357,13.993,20.614,16.8,22.144l.239.13.24-.13c2.8-1.529,16.8-9.785,16.8-22.144v-12.326l-.435-.057c-10.2-1.325-14.724-6.349-16.193-8.447l-.41-.585Zm-2.3,28.727a2.059,2.059,0,0,1-1.455-.629l-5.426-5.425a2.082,2.082,0,0,1,0-2.782,2.206,2.206,0,0,1,1.439-.531,1.878,1.878,0,0,1,1.342.531l4.106,3.965,9.521-9.52a1.968,1.968,0,0,1,1.391-.532,1.969,1.969,0,0,1,1.391.532,2.081,2.081,0,0,1,0,2.781l-10.982,10.981A1.63,1.63,0,0,1,2415.314-2059.762Z" transform="translate(-2357.158 2093.516)" fill="#305b33"/>
</svg>
