<svg xmlns="http://www.w3.org/2000/svg" width="44.722" height="35" viewBox="0 0 44.722 35">
  <g id="wallet-icon-green" transform="translate(42.278 -8.361)">
    <path id="Path_29" data-name="Path 29" d="M-6.616,31.532V27.157a2.961,2.961,0,0,1,3.028-2.917H-.056V19.055a3.739,3.739,0,0,0-3.869-3.727h-1.85V12.574a4.264,4.264,0,0,0-4.374-4.213H-37.9a4.267,4.267,0,0,0-4.374,4.213v27.06a3.739,3.739,0,0,0,3.869,3.727H-3.925A3.739,3.739,0,0,0-.056,39.634V34.287H-3.588A2.739,2.739,0,0,1-6.616,31.532Zm-1.178-16.2H-37.736A2.541,2.541,0,0,1-40.259,12.9a2.541,2.541,0,0,1,2.523-2.431H-9.981a2.187,2.187,0,0,1,2.187,2.106Z" transform="translate(0)" fill="#6bb370"/>
    <path id="Path_30" data-name="Path 30" d="M-16.278,18.761h-2.5a1.58,1.58,0,0,0-1.6,1.6v1.8a1.58,1.58,0,0,0,1.6,1.6h2.5a1.58,1.58,0,0,0,1.6-1.6v-1.8A1.58,1.58,0,0,0-16.278,18.761Z" transform="translate(17.122 8.395)" fill="#6bb370"/>
  </g>
</svg>
