<svg xmlns="http://www.w3.org/2000/svg" width="1276.058" height="372.864" viewBox="0 0 1276.058 372.864">
  <path id="congrats-type" d="M-733.269-491.613v-19.624c0-25.306-41.831-25.822-41.831,0v267.513c0,9.812,9.812,19.624,22.206,19.624,9.812,0,19.625-9.812,19.625-19.624v-25.823h33.052v25.823c0,70.751-107.935,67.652-107.935,0V-511.237c0-29.436,23.239-52.677,55.258-52.677a52.243,52.243,0,0,1,52.677,52.677v19.624Zm2.582-19.107V-494.2H-702.8V-510.72a49.173,49.173,0,0,0-3.615-19.625,49.925,49.925,0,0,0-46.479-30.987c-20.141,0-40.281,10.329-49.061,30.987a49.173,49.173,0,0,0-3.615,19.625v267c0,29.436,22.207,47.511,51.644,49.577,27.887,0,51.126-19.108,51.126-49.577v-22.724h-27.887v22.724c0,10.844-9.812,22.206-22.207,22.206-11.877,0-24.272-8.78-24.789-22.206v-267c0-13.428,9.813-21.691,23.757-22.207C-741.532-532.927-731.2-524.665-730.687-510.72Zm185.913,3.1v259.249c0,30.987-24.272,56.808-54.226,56.808-30.986,0-56.807-25.821-56.807-56.808V-507.622c0-29.953,26.338-56.292,56.807-56.292C-569.046-563.914-544.774-538.091-544.774-507.622Zm-2.582,0c0-25.3-21.174-53.71-51.644-53.71-28.92,0-54.225,25.823-54.225,53.71v259.249c0,28.921,24.272,54.226,54.225,54.226,28.921,0,51.644-27.371,51.644-54.226Zm-29.437.516v258.733c0,12.4-7.747,24.789-22.207,24.789-13.427,0-24.272-10.328-24.789-24.789V-507.106c0-13.943,9.813-25.305,24.789-25.305C-585.572-532.411-576.793-521.049-576.793-507.106Zm-2.582-.516c0-11.878-8.263-22.207-19.625-22.207a22.372,22.372,0,0,0-22.206,22.207v259.249c0,10.846,9.812,22.207,22.206,22.207,11.362,0,19.625-9.812,19.625-22.207Zm190.042-50.094v361.5h-34.084l-42.864-197.794v197.794h-34.085v-361.5h34.085l42.864,197.793V-557.716Zm-2.582,2.582h-28.92v218.968l-47.512-218.968h-29.437v356.339h28.921V-418.279l47.511,219.484h29.437Zm121.873,63.521v-18.075c0-11.361-8.263-21.69-19.624-21.69-11.878,0-21.69,10.329-21.69,21.69v262.865a21.822,21.822,0,0,0,21.69,21.691c11.361,0,19.624-9.813,19.624-21.691V-331h-18.075v-34.085h51.643v118.264c0,29.953-23.755,55.258-53.192,55.258s-55.258-25.3-55.258-55.258V-509.688c0-28.92,25.821-54.741,55.258-54.741,29.953,0,53.192,25.821,53.192,54.741v18.075Zm2.583-17.559V-494.2h28.4v-14.977c0-26.854-22.206-52.675-50.61-52.675-27.888,0-51.644,24.272-52.676,52.675v262.866c0,26.338,24.272,52.159,52.676,52.159,27.887,0,50.61-25.821,50.61-52.159v-116.2h-46.479v28.921h18.076v87.278c0,12.394-8.263,24.272-22.207,24.272-12.4,0-24.272-10.846-24.272-24.272V-509.172c0-11.877,8.779-24.789,24.272-24.789C-275.206-533.961-267.459-521.566-267.459-509.172Zm163.7,168.358,22.723,144.6h-34.6l-20.141-130.658h-21.69v130.658h-34.6v-361.5h50.61c32.02,0,60.423,26.338,60.423,59.906v111.033C-81.035-369.217-89.3-352.692-103.758-340.814Zm-3.1-1.549c10.328-7.23,23.239-24.789,23.239-44.414V-497.81c0-29.953-26.338-57.324-58.357-57.324h-47.512v356.339h29.437V-329.453h26.338l20.657,130.658h28.921Zm-6.2-155.447v111.033c0,14.977-14.46,28.4-28.92,28.4h-18.075V-525.7h18.075C-126.481-525.7-113.054-514.336-113.054-497.81Zm-2.582,0c0-13.944-12.394-25.3-25.822-25.3h-16.009v162.16h16.009c11.362,0,25.822-11.878,25.822-25.822Zm190.555-6.2v307.794H41.351V-325.838H-2.03v129.625H-36.114V-504.007c0-29.954,25.821-53.709,56.807-53.709S74.919-533.961,74.919-504.007Zm-2.583,0c0-25.822-21.173-51.127-51.643-51.127s-54.225,25.3-54.225,51.127v305.729h28.92V-327.9H43.933v129.625h28.4Zm-28.4,0V-357.34H-4.612V-504.007c0-13.944,11.362-22.207,25.305-22.207C33.6-526.214,43.933-518.467,43.933-504.007Zm-2.582,0c0-11.878-8.263-19.625-20.658-19.625S-2.03-515.885-2.03-504.007v144.084H41.351Zm188.493-53.709v33.568H191.628v327.935H157.543V-524.148H119.327v-33.568Zm-2.582,2.582H121.909v28.4h38.216v327.935h28.92V-526.73h38.217Zm123.419,83.663v-37.184c0-10.845-9.813-20.141-22.207-20.141-11.878,0-19.624,9.3-19.624,20.141v40.282c0,11.362,2.065,23.756,7.746,33.568l54.225,96.573c8.263,14.976,14.461,33.052,14.461,51.643v40.283c0,29.953-26.339,54.225-56.808,54.225a53.89,53.89,0,0,1-54.225-54.225v-44.93h34.6v44.93c0,11.878,7.746,19.624,19.624,19.624,12.394.516,22.207-7.746,22.207-19.624v-40.283a65.906,65.906,0,0,0-9.813-34.6l-54.742-95.025a116.653,116.653,0,0,1-11.877-52.159v-40.282c0-31.5,24.272-55.259,54.225-55.259,30.469,0,56.808,23.241,56.808,55.259v37.184Zm2.582-37.184v34.6H382.7v-34.6c0-28.4-23.239-52.677-54.741-52.677-28.921,0-51.127,24.789-51.127,52.677v40.282c0,17.042,4.648,39.249,11.877,51.127l54.743,94.507a70.547,70.547,0,0,1,9.812,36.15v40.283c0,14.46-10.846,22.206-24.789,22.206-13.428,0-22.207-7.746-22.207-22.206v-42.348H276.831v42.348c0,27.371,22.723,51.642,51.643,51.642,27.887,0,54.225-23.756,54.225-51.642v-40.283c0-17.042-5.68-33.568-13.943-50.61l-54.742-96.573c-5.681-9.813-7.23-20.657-7.747-34.6v-40.282c0-11.878,8.263-22.723,22.207-22.723C341.385-531.378,353.263-522.083,353.263-508.655Zm93.469,273.193a21.615,21.615,0,0,1,21.174,21.174c0,11.878-9.812,21.691-21.174,21.691a21.822,21.822,0,0,1-21.69-21.691C425.042-225.649,434.854-235.462,446.732-235.462Zm18.075,21.174c0-10.329-7.23-18.075-18.075-18.592-9.3-.516-19.108,7.748-19.108,18.592,0,9.3,8.779,19.109,19.108,19.109C456.544-195.179,464.807-203.443,464.807-214.288Zm-1.033-48.028h-34.6l.517-295.4h34.084Zm-2.582-292.818h-28.92L431.755-264.9h29.437Z" transform="translate(808.152 564.429)" fill="#d9d0a3" opacity="0.75"/>
</svg>
