<svg xmlns="http://www.w3.org/2000/svg" width="1188.784" height="372.864" viewBox="0 0 1188.784 372.864">
  <path id="giveaway-type" d="M1139.87,235.567V217.492c0-11.361-8.263-21.689-19.624-21.689-11.878,0-21.691,10.328-21.691,21.689V480.357a21.822,21.822,0,0,0,21.691,21.691c11.361,0,19.624-9.813,19.624-21.691V396.179H1121.8V362.094h51.643V480.357c0,29.954-23.756,55.258-53.192,55.258s-55.259-25.3-55.259-55.258V217.492c0-28.92,25.822-54.741,55.259-54.741,29.953,0,53.192,25.821,53.192,54.741v18.075Zm2.582-17.558v14.976h28.4V218.009c0-26.855-22.207-52.676-50.61-52.676-27.888,0-51.644,24.272-52.677,52.676V480.874c0,26.338,24.273,52.159,52.677,52.159,27.887,0,50.61-25.821,50.61-52.159v-116.2h-46.479V393.6h18.075v87.277c0,12.4-8.263,24.272-22.206,24.272-12.4,0-24.273-10.845-24.273-24.272V218.009c0-11.878,8.779-24.789,24.273-24.789C1134.706,193.22,1142.452,205.614,1142.452,218.009Zm109.477,312.959h-34.085v-361.5h34.085Zm-2.582-358.922h-28.921v356.34h28.921Zm156.473-2.582V403.925c0,71.268-39.765,119.3-45.963,127.043h-15.492c-8.263-7.746-48.029-55.775-48.029-127.043V169.464H1329.9V403.925c0,33.568,12.395,61.456,20.141,79.014,9.812-17.042,22.207-47.511,22.207-79.014V169.464Zm-2.582,2.582h-28.4V403.925c0,28.921-8.779,57.841-24.789,84.7-13.427-27.371-22.723-54.225-22.723-84.7V172.046h-28.4V403.925c0,44.929,18.076,93.474,46.479,124.461h12.911c26.855-33.569,44.93-79.532,44.93-124.461Zm80.556,32.019V367.258h54.226v34.6h-54.226v94.508h76.433v34.6H1449.193v-361.5h111.034v34.6Zm-2.582,165.776V201.483h76.432V172.046H1451.775v356.34h105.869V498.949h-76.432V399.277h54.226V369.841Zm233.936-146.668v307.8H1681.58V401.343H1638.2V530.968h-34.084v-307.8c0-29.953,25.821-53.709,56.807-53.709S1715.148,193.22,1715.148,223.173Zm-2.583,0c0-25.821-21.173-51.127-51.643-51.127s-54.225,25.306-54.225,51.127V528.9h28.92V399.277h48.545V528.9h28.4Zm-28.4,0V369.841h-48.545V223.173c0-13.944,11.362-22.206,25.305-22.206C1673.833,200.967,1684.162,208.713,1684.162,223.173Zm-2.582,0c0-11.878-8.263-19.624-20.658-19.624s-22.723,7.746-22.723,19.624V367.258h43.381Zm263.376-53.709V403.925c0,71.268-39.766,119.3-45.963,127.043H1883.5c-4.648-4.648-19.108-21.691-30.986-48.545a200.537,200.537,0,0,1-29.437,48.545h-15.493c-8.263-7.746-48.028-55.775-48.028-127.043V169.464h33.568V403.925c0,33.568,12.4,61.456,20.141,79.014,13.427-23.239,21.174-49.578,22.207-79.014V169.464h33.568V403.925c0,33.568,12.394,61.456,20.141,79.014,9.812-17.042,22.207-47.511,22.207-79.014V169.464Zm-2.582,2.582h-28.4V403.925c0,27.888-9.3,58.874-24.789,84.7-12.394-26.338-22.723-52.16-22.723-84.7V172.046h-28.4V403.925c0,29.436-9.812,60.939-24.789,84.179-11.362-19.625-22.723-52.676-22.723-84.179V172.046h-28.4V403.925c0,44.414,17.559,93.474,46.479,124.461h12.911q17.817-21.69,30.986-52.677c9.3,22.724,20.141,38.217,32.019,52.677h12.911c27.371-35.117,44.413-77.465,44.93-124.461Zm156.988,51.127v307.8h-33.568V401.343h-43.38V530.968h-34.085v-307.8c0-29.953,25.821-53.709,56.808-53.709S2099.362,193.22,2099.362,223.173Zm-2.582,0c0-25.821-21.174-51.127-51.643-51.127s-54.226,25.306-54.226,51.127V528.9h28.921V399.277h48.544V528.9h28.4Zm-28.4,0V369.841h-48.544V223.173c0-13.944,11.361-22.206,25.3-22.206C2058.047,200.967,2068.376,208.713,2068.376,223.173Zm-2.582,0c0-11.878-8.263-19.624-20.657-19.624s-22.723,7.746-22.723,19.624V367.258h43.38Zm187.977-53.709v84.695c0,53.193-23.24,93.475-38.733,114.132V530.968h-34.6V368.291c-14.46-20.657-36.666-60.939-36.666-114.132V169.464h33.567v84.695c0,34.085,12.4,61.973,20.141,79.531,10.329-17.043,22.724-47.512,22.724-79.531V169.464Zm-2.583,2.582h-28.4v82.113c0,31.5-13.428,69.2-25.306,83.146-7.746-11.878-22.723-48.029-22.723-83.146V172.046h-28.4v82.113c0,38.733,12.91,81.6,36.666,113.1l.517,161.128h28.92V367.258c20.657-26.338,38.732-69.2,38.732-113.1Z" transform="translate(-1064.987 -162.751)" fill="#d9d0a3"/>
</svg>
